# xmcd
# 
# Track frame offsets:
#     150
#     12768
#     30418
#     52081
#     70183
#     88085
#     110126
#     136849
#     162888
# 
# Disc length: 2448
# 
# Revision: 1
# Processed by: cddbd v1.5.2PL0 Copyright (c) Steve Scherf et al.
# Submitted via: fre:ac v1.0.31
# 
DISCID=71098e09
DTITLE=Jon Cleary - GoGo Juice
DYEAR=2015
DGENRE=Blues
TTITLE0=Pump It Up
TTITLE1=Boneyard
TTITLE2=Brother I'm Hungry
TTITLE3=Getcha GoGo Juice
TTITLE4=Beg Steal or Borrow
TTITLE5=Step Into My Life
TTITLE6=Bringing Back the Home
TTITLE7=9-5
TTITLE8=Jon Cleary - Love on One Condition
EXTD=YEAR: 2015
EXTT0=
EXTT1=
EXTT2=
EXTT3=
EXTT4=
EXTT5=
EXTT6=
EXTT7=
EXTT8=
PLAYORDER=
